<svg xmlns="http://www.w3.org/2000/svg" xmlns:xlink="http://www.w3.org/1999/xlink" width="26" height="26" id="grid"><defs><linearGradient id="b" x1="992.183" x2="1019.298" y1="516.081" y2="545.959" gradientTransform="translate(-772.463 625.151) scale(.78112)" gradientUnits="userSpaceOnUse" xlink:href="#a"></linearGradient><linearGradient id="a"><stop offset="0" stop-color="#ff1679"></stop><stop offset="1" stop-color="#ff770b"></stop></linearGradient></defs><g transform="translate(-1.03 -1096.225) scale(1.06642)"><rect width="24.381" height="24.381" x=".965" y="1027.95" fill="url(#b)" rx="5.152" ry="5.152"></rect><path style="line-height:normal;text-indent:0;text-align:start;text-decoration-line:none;text-decoration-style:solid;text-decoration-color:#000;text-transform:none;block-progression:tb;isolation:auto;mix-blend-mode:normal" fill="#fff" fill-rule="evenodd" d="M7.06 1033.577a.469.469 0 0 0-.468.469v2.813a.469.469 0 0 0 .469.469h2.813a.469.469 0 0 0 .469-.47v-2.812a.469.469 0 0 0-.47-.47H7.062zm4.69 0a.469.469 0 0 0-.47.469v2.813a.469.469 0 0 0 .47.469h2.812a.469.469 0 0 0 .47-.47v-2.812a.469.469 0 0 0-.47-.47H11.75zm4.688 0a.469.469 0 0 0-.471.469v2.813a.469.469 0 0 0 .47.469h2.814a.469.469 0 0 0 .469-.47v-2.812a.469.469 0 0 0-.47-.47h-2.812zm-8.91.937h1.877v1.876H7.528v-1.876zm4.69 0h1.875v1.876h-1.875v-1.876zm4.689 0h1.875v1.876h-1.875v-1.876zm-9.846 3.751a.469.469 0 0 0-.47.47v2.812a.469.469 0 0 0 .47.47h2.813a.469.469 0 0 0 .469-.47v-2.813a.469.469 0 0 0-.47-.469H7.062zm4.688 0a.469.469 0 0 0-.469.47v2.812a.469.469 0 0 0 .47.47h2.812a.469.469 0 0 0 .47-.47v-2.813a.469.469 0 0 0-.47-.469H11.75zm4.689 0a.469.469 0 0 0-.471.47v2.812a.469.469 0 0 0 .47.47h2.814a.469.469 0 0 0 .469-.47v-2.813a.469.469 0 0 0-.47-.469h-2.812zm-8.91.936h1.877v1.877H7.528v-1.877zm4.69 0h1.875v1.877h-1.875v-1.877zm4.689 0h1.875v1.877h-1.875v-1.877zm-9.846 3.753a.469.469 0 0 0-.47.469v2.813a.469.469 0 0 0 .47.469h2.813a.469.469 0 0 0 .469-.47v-2.812a.469.469 0 0 0-.47-.47H7.062zm4.688 0a.469.469 0 0 0-.469.469v2.813a.469.469 0 0 0 .47.469h2.812a.469.469 0 0 0 .47-.47v-2.812a.469.469 0 0 0-.47-.47H11.75zm4.689 0a.469.469 0 0 0-.471.469v2.813a.469.469 0 0 0 .47.469h2.814a.469.469 0 0 0 .469-.47v-2.812a.469.469 0 0 0-.47-.47h-2.812zm-8.91.938h1.877v1.875H7.528v-1.875zm4.69 0h1.875v1.875h-1.875v-1.875zm4.689 0h1.875v1.875h-1.875v-1.875z" color="#000" font-family="sans-serif" font-weight="400" overflow="visible"></path></g></svg>